<svg id="Layer_1" data-name="Layer 1" xmlns="http://www.w3.org/2000/svg" viewBox="0 0 1000 342.14"><defs><style>.cls-1{fill:#ffffff;}</style></defs><path class="cls-1" d="M207.53,148.28V255.2H156.1V144.33a81.76,81.76,0,0,1,81.76-81.75H270.6V114H241.8A34.27,34.27,0,0,0,207.53,148.28Z"/><path class="cls-1" d="M51.43,169.51V0H0V173.45A81.75,81.75,0,0,0,81.75,255.2H127.6V203.77H85.69A34.26,34.26,0,0,1,51.43,169.51Z"/><rect class="cls-1" x="42.45" y="28.87" width="51.43" height="118.87" transform="translate(156.47 20.13) rotate(90)"/><rect class="cls-1" x="719.13" width="51.43" height="255.2"/><path class="cls-1" d="M379.15,62.47a96.42,96.42,0,1,0,96.42,96.42A96.42,96.42,0,0,0,379.15,62.47Zm0,145.7a49.28,49.28,0,1,1,49.28-49.28A49.28,49.28,0,0,1,379.15,208.17Z"/><path class="cls-1" d="M597.48,62.47a96.42,96.42,0,1,0,96.42,96.42A96.42,96.42,0,0,0,597.48,62.47Zm0,145.7a49.28,49.28,0,1,1,49.28-49.28A49.28,49.28,0,0,1,597.48,208.17Z"/><polygon class="cls-1" points="789.23 62.58 870.68 259.16 918.19 239.48 844.9 62.58 789.23 62.58"/><path class="cls-1" d="M944.33,62.58,864.72,254.73a56.36,56.36,0,0,1-51.54,34.78v52.62a103.84,103.84,0,0,0,97.54-64.07l5-12.11L1000,62.58Z"/></svg>