<svg id="Layer_1" data-name="Layer 1" xmlns="http://www.w3.org/2000/svg" xmlns:xlink="http://www.w3.org/1999/xlink" viewBox="0 0 1000 1000"><defs><style>.cls-1{fill:url(#linear-gradient);}.cls-2{fill:url(#linear-gradient-2);}.cls-3{fill:#fbb040;}</style><linearGradient id="linear-gradient" y1="252.27" x2="1000" y2="252.27" gradientUnits="userSpaceOnUse"><stop offset="0.16" stop-color="#2bb673"/><stop offset="0.28" stop-color="#28b57b"/><stop offset="0.47" stop-color="#20b492"/><stop offset="0.7" stop-color="#14b2b6"/><stop offset="0.97" stop-color="#02aee9"/><stop offset="1" stop-color="#00aeef"/></linearGradient><linearGradient id="linear-gradient-2" x1="692.78" y1="893.77" x2="302.1" y2="503.09" gradientUnits="userSpaceOnUse"><stop offset="0.16" stop-color="#2bb673"/><stop offset="0.27" stop-color="#28b57b"/><stop offset="0.45" stop-color="#20b492"/><stop offset="0.67" stop-color="#14b2b6"/><stop offset="0.93" stop-color="#02aee9"/><stop offset="0.96" stop-color="#00aeef"/><stop offset="1" stop-color="#00aee5"/></linearGradient></defs><path class="cls-1" d="M791.05,0H209C93.55,0,0,93.55,0,209H0c0,115.4,93.55,209,209,209h75.56V285.45H209.58a76.5,76.5,0,0,1,0-153H790.42a76.5,76.5,0,1,1,0,153H657.59a375.53,375.53,0,0,0-204.63,61h0q-7.31,4.76-14.37,9.81l-.84.59c-4.82,3.49-9.59,7.06-14.24,10.76v0l-.86.7c-1.59,1.28-3.17,2.58-4.74,3.88-.82.68-1.65,1.34-2.46,2l-.7.61c-1.81,1.53-3.59,3.09-5.37,4.65l-1.57,1.38c-12.94,11.52-24.13,23.64-35.39,36.82l-.2.26a351,351,0,0,0-52.38,86.63c34.33-78.71,86.43-86.1,100.2-86.63h371c3.25,0,6.48-.1,9.7-.25,1,0,2-.11,3-.17,2.28-.13,4.56-.31,6.82-.52l3.18-.3q3.75-.42,7.47-.95l2-.28c3-.46,6-1,8.9-1.59,1.17-.23,2.32-.5,3.48-.75,1.86-.4,3.72-.83,5.56-1.28,1.32-.33,2.63-.66,3.94-1,1.71-.46,3.41-.95,5.11-1.45,1.28-.38,2.58-.74,3.86-1.14,2.59-.82,5.15-1.69,7.7-2.61,1.54-.55,3.06-1.15,4.58-1.74,1.24-.48,2.47-1,3.69-1.46q2.43-1,4.83-2.05c1-.45,2.06-.92,3.09-1.39q8.87-4.07,17.27-8.92l1.86-1.06q2.65-1.58,5.25-3.22l1.92-1.23A208.72,208.72,0,0,0,1000,209h0C1000,93.55,906.45,0,791.05,0Z"/><path class="cls-2" d="M576.49,790.42A76.49,76.49,0,0,1,500,866.92h0a76.49,76.49,0,0,1-76.49-76.5V417.91H420c-13.77.53-65.87,7.92-100.2,86.62a364.44,364.44,0,0,0-28.79,142.09V789.29c0,113.1,92.49,208.9,205.58,210.68,117,1.84,212.33-92.4,212.33-208.92V526H576.49Z"/><rect class="cls-3" x="240.56" y="568.85" width="1.63" height="1.63"/></svg>